# xmcd
#
# Track frame offsets: 
#        150
#        24627
#        41757
#        63117
#        77617
#        89025
#        115202
#        129240
#        143520
#        157927
#        170467
#        183285
#        195445
#        224255
#        245432
#        258310
#
# Disc length: 3710 seconds
#
# Revision: 4
# Processed by: cddbd v1.5.2PL0 Copyright (c) Steve Scherf et al.
# Submitted via: ExactAudioCopyFreeDBPlugin 1.0
#
DISCID=cf0e7c10
DTITLE=Black Voices - Black Voices [CD2)
DYEAR=1997
DGENRE=Soul
TTITLE0=Curtis Mayfield - Freddie's Dead
TTITLE1=Gladys Knight and The Pips - Friendship Train
TTITLE2=The Temptations - Don't Let The Joneses Get You Down
TTITLE3=Rufus feat. Chaka Khan - Somebody's Watching You
TTITLE4=Otis Redding - These Arms Of Mine
TTITLE5=Millie Lackson - All The Way Lover
TTITLE6=Rufus Thomas - Fried Chicken
TTITLE7=Joe Tex - Woman Like That, Yeah
TTITLE8=Sandra Wright - Please Don't Say Goodbye
TTITLE9=Marvin Gaye and Tammi Terrel - You're All I Need To Get By
TTITLE10=Darryl Carter - Looking Straight Ahead
TTITLE11=Bobby Bland - I Pity The Fool
TTITLE12=Wilson Pickett - Get Me Back On Time, Engine Number 9
TTITLE13=Bobby Womack - Communication
TTITLE14=Lorraine Ellison - Try (Just A Little Bit Harder)
TTITLE15=Diana Ross and Lionel Richie - Endless Love
EXTD=YEAR: 1997
EXTT0=
EXTT1=
EXTT2=
EXTT3=
EXTT4=
EXTT5=
EXTT6=
EXTT7=
EXTT8=
EXTT9=
EXTT10=
EXTT11=
EXTT12=
EXTT13=
EXTT14=
EXTT15=
PLAYORDER=
